<?xml version="1.0" encoding="utf-8"?>
<!-- Generator: Adobe Illustrator 14.0.0, SVG Export Plug-In . SVG Version: 6.00 Build 43363)  -->
<!DOCTYPE svg PUBLIC "-//W3C//DTD SVG 1.1//EN" "http://www.w3.org/Graphics/SVG/1.1/DTD/svg11.dtd">
<svg version="1.1" id="Layer_1" xmlns="http://www.w3.org/2000/svg" xmlns:xlink="http://www.w3.org/1999/xlink" x="0px" y="0px"
	 width="520.818px" height="139.527px" viewBox="0 0 520.818 139.527" enable-background="new 0 0 520.818 139.527"
	 xml:space="preserve">
<g>
	<g>
		<path d="M2.376,115.659h2.376v2.295H2.376V115.659z M2.511,121.004H4.59v13.959H2.511V121.004z"/>
		<path d="M8.467,121.004h2.079v2.43c0.468-0.756,1.08-1.399,1.836-1.931c0.756-0.53,1.737-0.796,2.943-0.796
			c0.846,0,1.597,0.135,2.254,0.405c0.657,0.27,1.215,0.652,1.674,1.147s0.81,1.084,1.053,1.769
			c0.243,0.684,0.364,1.439,0.364,2.268v8.667h-2.079v-8.137c0-1.293-0.333-2.316-0.999-3.071c-0.667-0.754-1.62-1.131-2.862-1.131
			c-0.594,0-1.147,0.104-1.661,0.31c-0.513,0.207-0.958,0.503-1.336,0.89c-0.378,0.386-0.67,0.849-0.877,1.387
			c-0.207,0.539-0.311,1.132-0.311,1.778v7.975H8.467V121.004z"/>
		<path d="M32.199,116.063h13.662v1.917H34.333v6.508h10.314v1.917H34.333v6.642h11.664v1.917H32.199V116.063z"/>
		<path d="M53.619,127.863l-5.265-6.858h2.376l4.131,5.4l4.131-5.4h2.322l-5.292,6.804l5.508,7.155h-2.403l-4.32-5.697l-4.347,5.697
			h-2.322L53.619,127.863z"/>
		<path d="M63.821,121.004H65.9v2.808c0.288-0.413,0.607-0.81,0.958-1.188s0.743-0.706,1.175-0.985
			c0.432-0.279,0.913-0.504,1.444-0.675c0.531-0.171,1.121-0.257,1.769-0.257c0.828,0,1.642,0.162,2.443,0.486
			c0.801,0.323,1.516,0.796,2.146,1.417c0.63,0.621,1.134,1.377,1.512,2.268c0.378,0.892,0.567,1.913,0.567,3.065v0.054
			c0,1.134-0.189,2.151-0.567,3.051c-0.378,0.9-0.877,1.66-1.499,2.281s-1.333,1.099-2.133,1.432
			c-0.801,0.332-1.625,0.499-2.47,0.499c-0.648,0-1.242-0.081-1.782-0.243s-1.026-0.378-1.458-0.647
			c-0.432-0.271-0.823-0.585-1.174-0.945c-0.351-0.359-0.662-0.738-0.932-1.134v6.993h-2.079V121.004z M70.869,133.397
			c0.666,0,1.3-0.121,1.903-0.364s1.125-0.594,1.566-1.053s0.792-1.021,1.053-1.688c0.261-0.666,0.392-1.422,0.392-2.269v-0.054
			c0-0.827-0.131-1.574-0.392-2.241c-0.261-0.665-0.617-1.232-1.066-1.7c-0.45-0.469-0.972-0.828-1.566-1.08
			c-0.594-0.252-1.224-0.378-1.89-0.378c-0.648,0-1.274,0.13-1.876,0.391c-0.604,0.262-1.144,0.631-1.62,1.107
			c-0.477,0.478-0.855,1.044-1.134,1.701s-0.418,1.382-0.418,2.174v0.054c0,0.81,0.139,1.548,0.418,2.214s0.657,1.233,1.134,1.701
			c0.477,0.468,1.017,0.833,1.62,1.094C69.595,133.267,70.221,133.397,70.869,133.397z"/>
		<path d="M82.262,128.834c0.072,0.738,0.252,1.396,0.54,1.971c0.288,0.576,0.657,1.063,1.107,1.458
			c0.45,0.396,0.954,0.698,1.512,0.904c0.558,0.208,1.143,0.311,1.755,0.311c0.972,0,1.804-0.18,2.498-0.54
			c0.693-0.359,1.327-0.837,1.903-1.431l1.296,1.161c-0.702,0.792-1.503,1.427-2.403,1.903c-0.9,0.477-2.016,0.716-3.348,0.716
			c-0.954,0-1.854-0.176-2.7-0.526c-0.846-0.352-1.584-0.847-2.214-1.485s-1.129-1.408-1.498-2.309
			c-0.369-0.899-0.554-1.89-0.554-2.97c0-1.008,0.166-1.958,0.5-2.849c0.333-0.891,0.796-1.665,1.391-2.322
			c0.594-0.656,1.3-1.174,2.119-1.553c0.819-0.378,1.715-0.566,2.687-0.566c1.026,0,1.944,0.193,2.754,0.58
			c0.81,0.388,1.494,0.914,2.052,1.58c0.558,0.666,0.981,1.449,1.269,2.349c0.288,0.9,0.432,1.863,0.432,2.889
			c0,0.091,0,0.194,0,0.311c0,0.117-0.009,0.257-0.027,0.419H82.262z M91.253,127.133c-0.054-0.626-0.189-1.222-0.405-1.785
			c-0.216-0.563-0.509-1.061-0.877-1.49c-0.369-0.429-0.819-0.77-1.35-1.02c-0.531-0.251-1.139-0.376-1.822-0.376
			c-0.594,0-1.152,0.116-1.674,0.349c-0.522,0.233-0.981,0.56-1.377,0.98c-0.396,0.42-0.725,0.917-0.985,1.49
			c-0.261,0.572-0.428,1.189-0.5,1.852H91.253z"/>
		<path d="M96.259,121.004h2.079v3.645c0.252-0.575,0.567-1.106,0.945-1.593c0.378-0.485,0.81-0.904,1.296-1.255
			c0.486-0.352,1.017-0.617,1.593-0.797s1.197-0.261,1.863-0.243v2.241h-0.162c-0.756,0-1.472,0.135-2.146,0.405
			c-0.675,0.27-1.265,0.675-1.769,1.215s-0.9,1.211-1.188,2.012c-0.288,0.801-0.432,1.724-0.432,2.768v5.562h-2.079V121.004z"/>
		<path d="M106.176,115.659h2.376v2.295h-2.376V115.659z M106.311,121.004h2.079v13.959h-2.079V121.004z"/>
		<path d="M112.267,121.004h2.079v2.349c0.234-0.342,0.49-0.675,0.77-0.999c0.279-0.323,0.598-0.607,0.958-0.851
			c0.36-0.242,0.765-0.436,1.215-0.58c0.45-0.144,0.972-0.216,1.566-0.216c1.134,0,2.069,0.266,2.808,0.796
			c0.738,0.531,1.296,1.193,1.674,1.985c0.252-0.378,0.535-0.738,0.851-1.08c0.314-0.342,0.67-0.639,1.066-0.892
			c0.396-0.252,0.841-0.449,1.336-0.594c0.495-0.144,1.048-0.216,1.661-0.216c1.62,0,2.889,0.499,3.807,1.498
			s1.377,2.372,1.377,4.118v8.64h-2.079v-8.137c0-1.346-0.32-2.384-0.958-3.111c-0.639-0.727-1.525-1.091-2.66-1.091
			c-0.522,0-1.017,0.095-1.485,0.283c-0.468,0.188-0.877,0.467-1.229,0.835s-0.63,0.821-0.837,1.36
			c-0.208,0.539-0.311,1.149-0.311,1.832v8.028h-2.052v-8.19c0-1.311-0.32-2.33-0.958-3.058c-0.639-0.727-1.517-1.091-2.632-1.091
			c-0.558,0-1.071,0.107-1.539,0.323c-0.468,0.216-0.877,0.521-1.229,0.916s-0.625,0.857-0.823,1.387
			c-0.199,0.53-0.297,1.119-0.297,1.766v7.947h-2.079V121.004z"/>
		<path d="M138.392,128.834c0.072,0.738,0.252,1.396,0.54,1.971c0.288,0.576,0.657,1.063,1.107,1.458
			c0.45,0.396,0.954,0.698,1.512,0.904c0.558,0.208,1.143,0.311,1.755,0.311c0.972,0,1.804-0.18,2.498-0.54
			c0.693-0.359,1.327-0.837,1.903-1.431l1.296,1.161c-0.702,0.792-1.503,1.427-2.403,1.903c-0.9,0.477-2.016,0.716-3.348,0.716
			c-0.954,0-1.854-0.176-2.7-0.526c-0.846-0.352-1.584-0.847-2.214-1.485s-1.129-1.408-1.498-2.309
			c-0.369-0.899-0.554-1.89-0.554-2.97c0-1.008,0.166-1.958,0.5-2.849c0.333-0.891,0.796-1.665,1.391-2.322
			c0.594-0.656,1.3-1.174,2.119-1.553c0.819-0.378,1.715-0.566,2.687-0.566c1.026,0,1.944,0.193,2.754,0.58
			c0.81,0.388,1.494,0.914,2.052,1.58c0.558,0.666,0.981,1.449,1.269,2.349c0.288,0.9,0.432,1.863,0.432,2.889
			c0,0.091,0,0.194,0,0.311c0,0.117-0.009,0.257-0.027,0.419H138.392z M147.383,127.133c-0.054-0.626-0.189-1.222-0.405-1.785
			c-0.216-0.563-0.509-1.061-0.877-1.49c-0.369-0.429-0.819-0.77-1.35-1.02c-0.531-0.251-1.139-0.376-1.822-0.376
			c-0.594,0-1.152,0.116-1.674,0.349c-0.522,0.233-0.981,0.56-1.377,0.98c-0.396,0.42-0.725,0.917-0.985,1.49
			c-0.261,0.572-0.428,1.189-0.5,1.852H147.383z"/>
		<path d="M152.388,121.004h2.079v2.43c0.468-0.756,1.08-1.399,1.836-1.931c0.756-0.53,1.737-0.796,2.943-0.796
			c0.846,0,1.597,0.135,2.254,0.405c0.657,0.27,1.215,0.652,1.674,1.147s0.81,1.084,1.053,1.769
			c0.243,0.684,0.364,1.439,0.364,2.268v8.667h-2.079v-8.137c0-1.293-0.333-2.316-0.999-3.071c-0.667-0.754-1.62-1.131-2.862-1.131
			c-0.594,0-1.147,0.104-1.661,0.31c-0.513,0.207-0.958,0.503-1.336,0.89c-0.378,0.386-0.67,0.849-0.877,1.387
			c-0.207,0.539-0.311,1.132-0.311,1.778v7.975h-2.079V121.004z"/>
		<path d="M172.557,135.207c-0.558,0-1.08-0.072-1.566-0.216c-0.486-0.145-0.904-0.374-1.255-0.688
			c-0.351-0.315-0.625-0.725-0.823-1.229c-0.198-0.504-0.297-1.107-0.297-1.81v-8.424h-1.944v-1.836h1.944v-4.212h2.079v4.212h4.428
			v1.836h-4.428v8.133c0,0.862,0.216,1.464,0.648,1.805c0.432,0.341,0.999,0.512,1.701,0.512c0.36,0,0.697-0.034,1.013-0.103
			c0.314-0.067,0.652-0.187,1.012-0.356v1.782c-0.36,0.198-0.742,0.347-1.147,0.445
			C173.516,135.157,173.061,135.207,172.557,135.207z"/>
		<path d="M182.091,135.26c-0.648,0-1.287-0.09-1.917-0.27c-0.63-0.18-1.188-0.455-1.674-0.824
			c-0.486-0.368-0.877-0.823-1.175-1.363c-0.297-0.54-0.445-1.17-0.445-1.89v-0.054c0-0.757,0.144-1.418,0.432-1.985
			c0.288-0.566,0.697-1.039,1.229-1.417c0.531-0.378,1.161-0.666,1.89-0.864c0.729-0.197,1.535-0.297,2.417-0.297
			c0.9,0,1.678,0.054,2.335,0.162c0.657,0.107,1.3,0.252,1.931,0.432v-0.429c0-1.234-0.36-2.169-1.08-2.804
			c-0.72-0.635-1.737-0.952-3.051-0.952c-0.828,0-1.58,0.09-2.254,0.27c-0.675,0.181-1.337,0.424-1.985,0.729l-0.621-1.711
			c0.773-0.365,1.557-0.657,2.349-0.877c0.792-0.219,1.701-0.328,2.727-0.328c1.98,0,3.483,0.513,4.509,1.539
			c0.972,0.972,1.458,2.34,1.458,4.104v8.532h-2.052v-2.079c-0.486,0.631-1.139,1.184-1.958,1.66
			C184.336,135.022,183.315,135.26,182.091,135.26z M182.511,133.559c0.646,0,1.247-0.089,1.803-0.269
			c0.556-0.179,1.045-0.434,1.467-0.766s0.754-0.726,0.996-1.183c0.242-0.456,0.363-0.963,0.363-1.518v-1.29
			c-0.521-0.144-1.112-0.277-1.776-0.403c-0.664-0.125-1.426-0.188-2.288-0.188c-1.292,0-2.292,0.255-3,0.766
			c-0.709,0.511-1.063,1.187-1.063,2.028v0.054c0,0.431,0.094,0.819,0.283,1.169s0.444,0.641,0.767,0.873
			c0.323,0.233,0.695,0.412,1.117,0.538C181.601,133.497,182.044,133.559,182.511,133.559z"/>
		<path d="M192.901,115.253h2.079v19.71h-2.079V115.253z"/>
		<path d="M217.579,132.291c-0.864,0.936-1.8,1.66-2.808,2.174c-1.008,0.513-2.133,0.769-3.375,0.769
			c-0.846,0-1.633-0.126-2.362-0.378c-0.729-0.251-1.359-0.611-1.89-1.08c-0.531-0.468-0.945-1.025-1.242-1.674
			c-0.297-0.647-0.446-1.367-0.446-2.16v-0.054c0-1.26,0.396-2.34,1.188-3.24c0.792-0.899,1.917-1.638,3.375-2.214
			c-0.648-0.756-1.125-1.448-1.431-2.079c-0.307-0.63-0.459-1.322-0.459-2.079v-0.054c0-0.611,0.121-1.192,0.364-1.741
			s0.581-1.026,1.013-1.431c0.432-0.405,0.954-0.725,1.566-0.959c0.612-0.233,1.296-0.351,2.052-0.351
			c0.666,0,1.278,0.112,1.836,0.337c0.558,0.226,1.039,0.531,1.444,0.918c0.405,0.388,0.724,0.837,0.958,1.351
			c0.234,0.513,0.351,1.066,0.351,1.66v0.054c0,1.206-0.396,2.205-1.188,2.997c-0.792,0.793-1.881,1.432-3.267,1.917l4.32,4.401
			c0.414-0.612,0.81-1.27,1.188-1.971c0.378-0.702,0.738-1.449,1.08-2.241l1.755,0.81c-0.414,0.9-0.841,1.746-1.282,2.538
			c-0.441,0.792-0.923,1.53-1.445,2.214l3.294,3.375l-1.62,1.242L217.579,132.291z M211.531,133.424c0.9,0,1.742-0.22,2.524-0.661
			c0.783-0.441,1.516-1.04,2.201-1.796l-5.049-5.211c-1.26,0.469-2.178,1.058-2.754,1.769s-0.864,1.472-0.864,2.281v0.055
			c0,0.504,0.094,0.972,0.283,1.403c0.189,0.433,0.459,0.811,0.81,1.134c0.351,0.324,0.77,0.577,1.255,0.757
			C210.424,133.334,210.955,133.424,211.531,133.424z M212.071,123.758c1.206-0.414,2.115-0.913,2.727-1.498
			c0.612-0.585,0.918-1.283,0.918-2.093v-0.054c0-0.757-0.252-1.382-0.756-1.877c-0.504-0.495-1.144-0.742-1.917-0.742
			c-0.864,0-1.557,0.261-2.079,0.783c-0.522,0.521-0.783,1.17-0.783,1.943v0.054c0,0.271,0.031,0.536,0.095,0.797
			c0.063,0.262,0.166,0.526,0.311,0.797c0.144,0.27,0.337,0.558,0.58,0.863C211.409,123.039,211.71,123.38,212.071,123.758z"/>
		<path d="M239.448,115.928h1.998l8.613,19.035h-2.295l-2.214-4.995h-10.287l-2.241,4.995h-2.187L239.448,115.928z M244.713,128.051
			l-4.293-9.639l-4.32,9.639H244.713z"/>
		<path d="M252.556,121.004h2.079v2.808c0.288-0.413,0.607-0.81,0.958-1.188s0.743-0.706,1.175-0.985s0.914-0.504,1.445-0.675
			c0.53-0.171,1.12-0.257,1.769-0.257c0.827,0,1.642,0.162,2.443,0.486c0.801,0.323,1.516,0.796,2.146,1.417
			c0.63,0.621,1.134,1.377,1.512,2.268c0.378,0.892,0.567,1.913,0.567,3.065v0.054c0,1.134-0.189,2.151-0.567,3.051
			c-0.378,0.9-0.877,1.66-1.498,2.281s-1.333,1.099-2.134,1.432c-0.801,0.332-1.624,0.499-2.47,0.499
			c-0.648,0-1.242-0.081-1.782-0.243s-1.026-0.378-1.458-0.647c-0.432-0.271-0.823-0.585-1.174-0.945
			c-0.351-0.359-0.662-0.738-0.932-1.134v6.993h-2.079V121.004z M259.604,133.397c0.665,0,1.3-0.121,1.903-0.364
			c0.603-0.243,1.125-0.594,1.565-1.053c0.441-0.459,0.792-1.021,1.054-1.688c0.261-0.666,0.392-1.422,0.392-2.269v-0.054
			c0-0.827-0.131-1.574-0.392-2.241c-0.262-0.665-0.617-1.232-1.066-1.7c-0.45-0.469-0.973-0.828-1.566-1.08
			s-1.225-0.378-1.89-0.378c-0.648,0-1.274,0.13-1.877,0.391c-0.604,0.262-1.144,0.631-1.62,1.107
			c-0.477,0.478-0.855,1.044-1.134,1.701s-0.418,1.382-0.418,2.174v0.054c0,0.81,0.139,1.548,0.418,2.214s0.657,1.233,1.134,1.701
			c0.477,0.468,1.017,0.833,1.62,1.094C258.33,133.267,258.956,133.397,259.604,133.397z"/>
		<path d="M269.645,121.004h2.079v2.808c0.287-0.413,0.607-0.81,0.958-1.188c0.352-0.378,0.742-0.706,1.175-0.985
			c0.432-0.279,0.913-0.504,1.444-0.675c0.53-0.171,1.12-0.257,1.769-0.257c0.828,0,1.643,0.162,2.443,0.486
			c0.801,0.323,1.517,0.796,2.146,1.417s1.134,1.377,1.512,2.268c0.378,0.892,0.567,1.913,0.567,3.065v0.054
			c0,1.134-0.189,2.151-0.567,3.051c-0.378,0.9-0.877,1.66-1.498,2.281s-1.332,1.099-2.133,1.432
			c-0.802,0.332-1.625,0.499-2.471,0.499c-0.648,0-1.242-0.081-1.782-0.243s-1.025-0.378-1.458-0.647
			c-0.432-0.271-0.823-0.585-1.175-0.945c-0.351-0.359-0.661-0.738-0.931-1.134v6.993h-2.079V121.004z M276.692,133.397
			c0.666,0,1.3-0.121,1.903-0.364c0.603-0.243,1.125-0.594,1.566-1.053c0.44-0.459,0.791-1.021,1.053-1.688
			c0.261-0.666,0.392-1.422,0.392-2.269v-0.054c0-0.827-0.131-1.574-0.392-2.241c-0.262-0.665-0.617-1.232-1.066-1.7
			c-0.45-0.469-0.973-0.828-1.566-1.08s-1.224-0.378-1.89-0.378c-0.648,0-1.273,0.13-1.877,0.391
			c-0.603,0.262-1.143,0.631-1.62,1.107c-0.477,0.478-0.854,1.044-1.134,1.701s-0.418,1.382-0.418,2.174v0.054
			c0,0.81,0.139,1.548,0.418,2.214s0.657,1.233,1.134,1.701c0.478,0.468,1.018,0.833,1.62,1.094
			C275.418,133.267,276.043,133.397,276.692,133.397z"/>
		<path d="M286.857,115.253h2.079v19.71h-2.079V115.253z"/>
		<path d="M292.764,115.659h2.376v2.295h-2.376V115.659z M292.899,121.004h2.079v13.959h-2.079V121.004z"/>
		<path d="M300.127,128.834c0.071,0.738,0.251,1.396,0.539,1.971c0.288,0.576,0.657,1.063,1.107,1.458
			c0.45,0.396,0.954,0.698,1.512,0.904c0.558,0.208,1.144,0.311,1.755,0.311c0.973,0,1.805-0.18,2.498-0.54
			c0.692-0.359,1.327-0.837,1.903-1.431l1.296,1.161c-0.702,0.792-1.503,1.427-2.402,1.903c-0.9,0.477-2.017,0.716-3.349,0.716
			c-0.954,0-1.854-0.176-2.7-0.526c-0.846-0.352-1.584-0.847-2.214-1.485s-1.13-1.408-1.498-2.309
			c-0.369-0.899-0.554-1.89-0.554-2.97c0-1.008,0.166-1.958,0.499-2.849s0.797-1.665,1.391-2.322
			c0.595-0.656,1.301-1.174,2.12-1.553c0.818-0.378,1.714-0.566,2.687-0.566c1.025,0,1.943,0.193,2.754,0.58
			c0.81,0.388,1.494,0.914,2.052,1.58s0.98,1.449,1.269,2.349c0.288,0.9,0.433,1.863,0.433,2.889c0,0.091,0,0.194,0,0.311
			c0,0.117-0.01,0.257-0.027,0.419H300.127z M309.118,127.133c-0.054-0.626-0.188-1.222-0.404-1.785
			c-0.217-0.563-0.509-1.061-0.878-1.49c-0.369-0.429-0.819-0.77-1.35-1.02c-0.531-0.251-1.139-0.376-1.823-0.376
			c-0.594,0-1.151,0.116-1.674,0.349c-0.522,0.233-0.981,0.56-1.377,0.98c-0.396,0.42-0.725,0.917-0.985,1.49
			c-0.261,0.572-0.428,1.189-0.499,1.852H309.118z"/>
		<path d="M320,135.26c-0.846,0-1.665-0.162-2.457-0.486c-0.792-0.323-1.503-0.796-2.133-1.417s-1.134-1.377-1.512-2.268
			c-0.378-0.892-0.567-1.913-0.567-3.065v-0.054c0-1.134,0.189-2.15,0.567-3.051s0.882-1.66,1.512-2.281s1.341-1.098,2.133-1.432
			c0.792-0.333,1.611-0.499,2.457-0.499c0.648,0,1.242,0.081,1.782,0.243s1.026,0.378,1.458,0.647
			c0.432,0.271,0.823,0.585,1.175,0.945c0.351,0.36,0.661,0.738,0.932,1.134v-8.424h2.079v19.71h-2.079v-2.808
			c-0.288,0.414-0.607,0.81-0.959,1.188c-0.351,0.378-0.742,0.711-1.175,0.999c-0.432,0.288-0.913,0.513-1.444,0.675
			S320.649,135.26,320,135.26z M320.378,133.397c0.648,0,1.273-0.13,1.877-0.391c0.603-0.261,1.143-0.63,1.62-1.107
			c0.477-0.477,0.854-1.044,1.134-1.701c0.279-0.656,0.419-1.391,0.419-2.2v-0.054c0-0.811-0.14-1.544-0.419-2.201
			c-0.279-0.656-0.657-1.219-1.134-1.688c-0.478-0.468-1.018-0.832-1.62-1.094c-0.604-0.261-1.229-0.391-1.877-0.391
			c-0.684,0-1.322,0.121-1.917,0.364c-0.594,0.243-1.111,0.594-1.552,1.053c-0.441,0.459-0.793,1.021-1.054,1.688
			s-0.392,1.422-0.392,2.269v0.054c0,0.828,0.131,1.575,0.392,2.241s0.617,1.232,1.066,1.7c0.45,0.469,0.973,0.828,1.566,1.08
			C319.083,133.272,319.712,133.397,320.378,133.397z"/>
		<path d="M339.17,116.063h2.133v16.93h10.639v1.971H339.17V116.063z"/>
		<path d="M354.485,115.659h2.376v2.295h-2.376V115.659z M354.62,121.004h2.079v13.959h-2.079V121.004z"/>
		<path d="M360.576,121.004h2.079v2.43c0.468-0.756,1.08-1.399,1.836-1.931c0.756-0.53,1.736-0.796,2.942-0.796
			c0.846,0,1.598,0.135,2.255,0.405c0.657,0.27,1.215,0.652,1.674,1.147s0.811,1.084,1.053,1.769
			c0.243,0.684,0.365,1.439,0.365,2.268v8.667h-2.079v-8.137c0-1.293-0.334-2.316-0.999-3.071c-0.666-0.754-1.62-1.131-2.862-1.131
			c-0.594,0-1.147,0.104-1.66,0.31c-0.514,0.207-0.959,0.503-1.337,0.89c-0.378,0.386-0.671,0.849-0.877,1.387
			c-0.208,0.539-0.311,1.132-0.311,1.778v7.975h-2.079V121.004z"/>
		<path d="M382.561,139.337c-1.17,0-2.286-0.162-3.348-0.486c-1.063-0.323-2.062-0.81-2.997-1.458l0.945-1.62
			c0.81,0.576,1.655,1.018,2.537,1.323s1.827,0.459,2.835,0.459c1.548,0,2.781-0.418,3.699-1.255
			c0.918-0.838,1.377-2.075,1.377-3.713v-1.647c-0.612,0.811-1.359,1.504-2.24,2.079c-0.883,0.576-1.963,0.864-3.24,0.864
			c-0.847,0-1.661-0.152-2.443-0.459c-0.783-0.306-1.481-0.742-2.093-1.31c-0.612-0.566-1.103-1.251-1.472-2.052
			s-0.554-1.705-0.554-2.714v-0.054c0-1.026,0.185-1.944,0.554-2.754c0.369-0.811,0.859-1.499,1.472-2.065
			c0.611-0.567,1.313-1.003,2.105-1.31c0.792-0.306,1.603-0.459,2.431-0.459c0.647,0,1.246,0.076,1.795,0.229
			s1.044,0.355,1.485,0.607c0.44,0.252,0.841,0.549,1.201,0.891c0.36,0.343,0.685,0.702,0.973,1.08v-2.511h2.079v11.529
			c0,1.08-0.153,2.029-0.459,2.849c-0.307,0.818-0.748,1.516-1.323,2.092c-0.631,0.63-1.396,1.098-2.295,1.404
			C384.685,139.184,383.677,139.337,382.561,139.337z M382.534,132.047c0.666,0,1.306-0.112,1.917-0.338
			c0.612-0.225,1.157-0.549,1.634-0.972s0.859-0.922,1.147-1.498s0.433-1.216,0.433-1.917v-0.055c0-0.72-0.145-1.367-0.433-1.943
			s-0.671-1.071-1.147-1.485s-1.021-0.733-1.634-0.958c-0.611-0.226-1.251-0.338-1.917-0.338s-1.291,0.112-1.876,0.338
			c-0.585,0.225-1.099,0.539-1.539,0.944c-0.441,0.405-0.788,0.896-1.039,1.472c-0.253,0.576-0.379,1.225-0.379,1.944v0.054
			c0,0.702,0.131,1.346,0.392,1.931s0.612,1.084,1.054,1.498c0.44,0.414,0.953,0.738,1.539,0.973
			C381.269,131.93,381.886,132.047,382.534,132.047z"/>
		<path d="M398.642,135.26c-0.847,0-1.598-0.135-2.255-0.405c-0.657-0.27-1.215-0.651-1.674-1.147
			c-0.459-0.494-0.81-1.084-1.053-1.769c-0.243-0.684-0.364-1.439-0.364-2.268v-8.667h2.078v8.137c0,1.293,0.333,2.316,0.999,3.07
			c0.666,0.755,1.62,1.132,2.862,1.132c0.594,0,1.147-0.103,1.66-0.31c0.514-0.207,0.954-0.503,1.323-0.89
			c0.369-0.386,0.662-0.848,0.878-1.387s0.324-1.132,0.324-1.778v-7.975h2.052v13.959h-2.052v-2.43
			c-0.469,0.756-1.08,1.399-1.837,1.931C400.829,134.995,399.848,135.26,398.642,135.26z"/>
		<path d="M409.232,115.659h2.376v2.295h-2.376V115.659z M409.367,121.004h2.079v13.959h-2.079V121.004z"/>
		<path d="M419.888,135.233c-1.009,0-2.025-0.185-3.052-0.553c-1.025-0.369-1.935-0.868-2.727-1.499l1.053-1.484
			c0.756,0.576,1.543,1.017,2.362,1.322c0.819,0.307,1.643,0.459,2.471,0.459c0.846,0,1.539-0.197,2.079-0.594
			c0.54-0.396,0.81-0.936,0.81-1.62v-0.054c0-0.342-0.094-0.639-0.283-0.891c-0.188-0.252-0.445-0.473-0.77-0.662
			c-0.324-0.188-0.697-0.355-1.12-0.499c-0.423-0.145-0.86-0.279-1.31-0.405c-0.54-0.162-1.085-0.338-1.634-0.526
			c-0.549-0.189-1.044-0.428-1.484-0.716c-0.441-0.287-0.802-0.647-1.08-1.08c-0.279-0.432-0.419-0.972-0.419-1.62v-0.054
			c0-0.594,0.117-1.138,0.351-1.634c0.234-0.494,0.563-0.918,0.986-1.269c0.423-0.352,0.927-0.621,1.512-0.811
			c0.585-0.188,1.219-0.283,1.903-0.283c0.864,0,1.737,0.14,2.619,0.419s1.683,0.652,2.403,1.12l-0.945,1.566
			c-0.648-0.414-1.328-0.743-2.038-0.985c-0.712-0.243-1.409-0.365-2.093-0.365c-0.828,0-1.485,0.194-1.971,0.581
			c-0.486,0.387-0.729,0.868-0.729,1.444v0.054c0,0.324,0.099,0.607,0.297,0.851s0.463,0.455,0.797,0.635
			c0.333,0.18,0.715,0.342,1.147,0.485c0.432,0.145,0.882,0.289,1.35,0.433c0.54,0.162,1.075,0.342,1.606,0.54
			s1.013,0.45,1.444,0.756c0.433,0.307,0.778,0.675,1.04,1.107c0.261,0.432,0.392,0.963,0.392,1.593v0.054
			c0,0.666-0.131,1.256-0.392,1.769c-0.262,0.513-0.612,0.949-1.053,1.31c-0.441,0.36-0.964,0.635-1.566,0.823
			C421.242,135.139,420.589,135.233,419.888,135.233z"/>
		<path d="M432.527,135.207c-0.559,0-1.08-0.072-1.566-0.216c-0.485-0.145-0.904-0.374-1.255-0.688
			c-0.352-0.315-0.626-0.725-0.824-1.229s-0.297-1.107-0.297-1.81v-8.424h-1.943v-1.836h1.943v-4.212h2.079v4.212h4.428v1.836
			h-4.428v8.133c0,0.862,0.216,1.464,0.648,1.805c0.432,0.341,0.999,0.512,1.7,0.512c0.36,0,0.698-0.034,1.013-0.103
			c0.315-0.067,0.652-0.187,1.013-0.356v1.782c-0.36,0.198-0.742,0.347-1.147,0.445S433.031,135.207,432.527,135.207z"/>
		<path d="M437.484,115.659h2.376v2.295h-2.376V115.659z M437.619,121.004h2.079v13.959h-2.079V121.004z"/>
		<path d="M449.841,135.288c-1.026,0-1.976-0.194-2.849-0.581s-1.63-0.908-2.269-1.565s-1.139-1.427-1.498-2.309
			c-0.36-0.882-0.54-1.81-0.54-2.781v-0.054c0-0.99,0.18-1.926,0.54-2.809c0.359-0.881,0.859-1.655,1.498-2.321
			s1.396-1.192,2.269-1.58c0.873-0.387,1.822-0.58,2.849-0.58c0.665,0,1.269,0.063,1.809,0.188c0.54,0.127,1.035,0.302,1.485,0.527
			c0.449,0.225,0.864,0.49,1.242,0.796c0.378,0.307,0.729,0.631,1.053,0.972l-1.377,1.458c-0.559-0.575-1.166-1.07-1.822-1.484
			c-0.657-0.414-1.463-0.621-2.417-0.621c-0.702,0-1.359,0.14-1.971,0.418c-0.612,0.279-1.144,0.662-1.593,1.148
			c-0.45,0.485-0.802,1.058-1.054,1.714c-0.252,0.657-0.378,1.363-0.378,2.12v0.054c0,0.756,0.131,1.463,0.392,2.119
			c0.261,0.657,0.621,1.233,1.08,1.729s0.999,0.882,1.62,1.161s1.3,0.418,2.038,0.418c0.9,0,1.696-0.198,2.39-0.594
			c0.692-0.396,1.318-0.892,1.877-1.485l1.322,1.242c-0.701,0.792-1.498,1.44-2.389,1.944
			C452.257,135.035,451.155,135.288,449.841,135.288z"/>
		<path d="M463.055,135.233c-1.009,0-2.025-0.185-3.052-0.553c-1.025-0.369-1.935-0.868-2.727-1.499l1.053-1.484
			c0.756,0.576,1.543,1.017,2.362,1.322c0.819,0.307,1.643,0.459,2.471,0.459c0.846,0,1.539-0.197,2.079-0.594
			c0.54-0.396,0.81-0.936,0.81-1.62v-0.054c0-0.342-0.094-0.639-0.283-0.891c-0.188-0.252-0.445-0.473-0.77-0.662
			c-0.324-0.188-0.697-0.355-1.12-0.499c-0.423-0.145-0.86-0.279-1.31-0.405c-0.54-0.162-1.085-0.338-1.634-0.526
			c-0.549-0.189-1.044-0.428-1.484-0.716c-0.441-0.287-0.802-0.647-1.08-1.08c-0.279-0.432-0.419-0.972-0.419-1.62v-0.054
			c0-0.594,0.117-1.138,0.351-1.634c0.234-0.494,0.563-0.918,0.986-1.269c0.423-0.352,0.927-0.621,1.512-0.811
			c0.585-0.188,1.219-0.283,1.903-0.283c0.864,0,1.737,0.14,2.619,0.419s1.683,0.652,2.403,1.12l-0.945,1.566
			c-0.648-0.414-1.328-0.743-2.038-0.985c-0.712-0.243-1.409-0.365-2.093-0.365c-0.828,0-1.485,0.194-1.971,0.581
			c-0.486,0.387-0.729,0.868-0.729,1.444v0.054c0,0.324,0.099,0.607,0.297,0.851s0.463,0.455,0.797,0.635
			c0.333,0.18,0.715,0.342,1.147,0.485c0.432,0.145,0.882,0.289,1.35,0.433c0.54,0.162,1.075,0.342,1.606,0.54
			s1.013,0.45,1.444,0.756c0.433,0.307,0.778,0.675,1.04,1.107c0.261,0.432,0.392,0.963,0.392,1.593v0.054
			c0,0.666-0.131,1.256-0.392,1.769c-0.262,0.513-0.612,0.949-1.053,1.31c-0.441,0.36-0.964,0.635-1.566,0.823
			C464.409,135.139,463.756,135.233,463.055,135.233z"/>
	</g>
	<g>
		<path fill="#7A003C" d="M13.68,77.103h8.415l13.41,31.725h-9.36l-2.295-5.625H11.7l-2.25,5.625H0.27L13.68,77.103z M21.33,96.453
			l-3.51-8.955l-3.555,8.955H21.33z"/>
		<path fill="#7A003C" d="M46.84,109.368c-1.44,0-2.813-0.293-4.117-0.878c-1.305-0.585-2.446-1.417-3.42-2.497
			c-0.975-1.08-1.755-2.399-2.34-3.96c-0.585-1.56-0.877-3.314-0.877-5.265v-0.091c0-1.979,0.284-3.757,0.853-5.332
			c0.568-1.575,1.346-2.909,2.334-4.005c0.987-1.095,2.125-1.936,3.412-2.521c1.287-0.585,2.648-0.877,4.084-0.877
			c1.826,0,3.322,0.353,4.489,1.058c1.167,0.705,2.154,1.522,2.963,2.452V75.978h8.595v32.85H54.22l0.045-3.24
			c-0.84,1.021-1.831,1.905-2.97,2.655C50.155,108.992,48.67,109.368,46.84,109.368z M49.428,102.212
			c0.687,0,1.329-0.135,1.926-0.404c0.598-0.271,1.12-0.653,1.568-1.148c0.448-0.494,0.799-1.079,1.052-1.755
			c0.254-0.675,0.381-1.417,0.381-2.228v-0.09c0-0.81-0.127-1.545-0.381-2.205c-0.253-0.659-0.604-1.237-1.052-1.732
			c-0.448-0.495-0.97-0.877-1.568-1.147c-0.598-0.27-1.24-0.405-1.926-0.405s-1.329,0.136-1.926,0.405
			c-0.598,0.271-1.12,0.646-1.568,1.125c-0.448,0.48-0.807,1.058-1.075,1.732s-0.403,1.418-0.403,2.228v0.09
			c0,0.811,0.134,1.553,0.403,2.228c0.269,0.676,0.627,1.261,1.075,1.755c0.448,0.495,0.97,0.878,1.568,1.148
			C48.099,102.078,48.741,102.212,49.428,102.212z"/>
		<path fill="#7A003C" d="M65.065,84.483h9l4.68,14.22l4.68-14.22h8.865l-9.72,24.524h-7.785L65.065,84.483z"/>
		<path fill="#7A003C" d="M100.872,109.368c-1.17,0-2.25-0.165-3.24-0.495c-0.99-0.33-1.853-0.81-2.587-1.439
			c-0.735-0.631-1.313-1.41-1.732-2.341c-0.42-0.929-0.63-2.009-0.63-3.239v-0.091c0-1.26,0.232-2.369,0.697-3.329
			c0.465-0.96,1.11-1.756,1.935-2.386c0.825-0.63,1.823-1.109,2.993-1.439s2.475-0.495,3.915-0.495c1.14,0,2.228,0.098,3.262,0.292
			c1.035,0.196,1.897,0.413,2.588,0.653v-0.405c0-1.26-0.398-2.234-1.193-2.925s-2.018-1.035-3.667-1.035
			c-1.29,0-2.46,0.12-3.51,0.359c-1.051,0.241-2.115,0.57-3.195,0.99l-1.755-6.03c1.379-0.569,2.842-1.026,4.388-1.372
			c1.544-0.345,3.367-0.518,5.467-0.518c2.189,0,4.042,0.255,5.558,0.765c1.515,0.511,2.752,1.246,3.712,2.205
			c0.93,0.9,1.598,1.988,2.002,3.263c0.405,1.275,0.607,2.768,0.607,4.478v13.995h-8.46v-2.52c-0.84,0.93-1.838,1.672-2.992,2.227
			C103.879,109.09,102.492,109.368,100.872,109.368z M103.932,104.012c1.26,0,2.279-0.359,3.06-1.079
			c0.78-0.721,1.17-1.695,1.17-2.926v-1.125c-0.42-0.18-0.922-0.329-1.507-0.449c-0.585-0.12-1.193-0.181-1.823-0.181
			c-1.26,0-2.228,0.278-2.902,0.833c-0.675,0.555-1.013,1.282-1.013,2.183v0.09c0,0.84,0.285,1.492,0.855,1.957
			C102.341,103.781,103.061,104.012,103.932,104.012z"/>
		<path fill="#7A003C" d="M121.045,84.483h8.595v3.42c0.385-0.51,0.815-1.005,1.289-1.485c0.474-0.479,1.007-0.899,1.6-1.26
			s1.245-0.652,1.956-0.878c0.711-0.225,1.497-0.337,2.355-0.337c2.624,0,4.667,0.795,6.131,2.385
			c1.462,1.591,2.194,3.78,2.194,6.57v15.93h-8.595V95.643c0-1.351-0.312-2.37-0.933-3.061c-0.622-0.689-1.436-1.035-2.443-1.035
			c-1.036,0-1.888,0.346-2.554,1.035c-0.667,0.69-0.999,1.71-0.999,3.061v13.185h-8.595V84.483z"/>
		<path fill="#7A003C" d="M161.211,109.413c-1.83,0-3.525-0.338-5.085-1.013c-1.561-0.675-2.902-1.582-4.027-2.723
			c-1.125-1.14-2.01-2.481-2.655-4.027c-0.646-1.545-0.967-3.172-0.967-4.882v-0.091c0-1.71,0.322-3.337,0.967-4.882
			c0.645-1.545,1.537-2.896,2.678-4.05c1.14-1.155,2.512-2.07,4.117-2.745c1.604-0.676,3.367-1.013,5.288-1.013
			c2.52,0,4.62,0.495,6.3,1.484c1.68,0.99,3.045,2.311,4.095,3.961l-5.805,4.319c-0.6-0.81-1.245-1.439-1.935-1.89
			c-0.69-0.45-1.56-0.675-2.61-0.675c-0.69,0-1.328,0.143-1.913,0.427c-0.585,0.286-1.087,0.676-1.507,1.17
			c-0.42,0.495-0.75,1.065-0.99,1.711c-0.241,0.645-0.36,1.343-0.36,2.092v0.09c0,0.781,0.12,1.508,0.36,2.183
			c0.24,0.675,0.569,1.261,0.99,1.755c0.42,0.495,0.93,0.886,1.53,1.17c0.6,0.286,1.26,0.428,1.98,0.428
			c1.02,0,1.882-0.225,2.587-0.675c0.705-0.45,1.402-1.064,2.092-1.845l5.715,4.14c-1.14,1.681-2.565,3.03-4.275,4.05
			S163.881,109.413,161.211,109.413z"/>
		<path fill="#7A003C" d="M186.357,109.413c-1.92,0-3.675-0.308-5.265-0.923c-1.59-0.614-2.963-1.469-4.117-2.564
			c-1.155-1.095-2.055-2.423-2.7-3.982c-0.646-1.56-0.967-3.285-0.967-5.175v-0.091c0-1.77,0.299-3.427,0.9-4.972
			c0.6-1.545,1.447-2.896,2.542-4.051c1.095-1.154,2.392-2.062,3.893-2.722c1.5-0.66,3.15-0.99,4.95-0.99
			c2.1,0,3.922,0.359,5.468,1.08c1.544,0.72,2.819,1.688,3.825,2.902c1.005,1.215,1.755,2.625,2.25,4.229
			c0.495,1.605,0.743,3.308,0.743,5.107c0,0.271,0,0.556,0,0.855s-0.016,0.601-0.045,0.9h-16.29c0.33,1.35,0.952,2.355,1.868,3.015
			c0.915,0.66,2.047,0.99,3.397,0.99c1.02,0,1.958-0.195,2.813-0.585s1.717-1.02,2.587-1.891l4.725,3.915
			c-1.17,1.501-2.618,2.7-4.343,3.601C190.864,108.962,188.787,109.413,186.357,109.413z M189.867,94.653
			c-0.151-1.351-0.601-2.423-1.35-3.218c-0.75-0.795-1.71-1.192-2.88-1.192c-1.14,0-2.07,0.397-2.79,1.192
			c-0.72,0.795-1.201,1.867-1.44,3.218H189.867z"/>
		<path fill="#7A003C" d="M211.143,109.368c-1.44,0-2.813-0.293-4.117-0.878c-1.305-0.585-2.446-1.417-3.42-2.497
			c-0.975-1.08-1.755-2.399-2.34-3.96c-0.585-1.56-0.877-3.314-0.877-5.265v-0.091c0-1.979,0.284-3.757,0.853-5.332
			c0.568-1.575,1.346-2.909,2.334-4.005c0.987-1.095,2.125-1.936,3.412-2.521c1.287-0.585,2.648-0.877,4.084-0.877
			c1.826,0,3.322,0.353,4.489,1.058c1.167,0.705,2.154,1.522,2.963,2.452V75.978h8.595v32.85h-8.595l0.045-3.24
			c-0.84,1.021-1.831,1.905-2.97,2.655C214.457,108.992,212.972,109.368,211.143,109.368z M213.73,102.212
			c0.687,0,1.329-0.135,1.926-0.404c0.598-0.271,1.12-0.653,1.568-1.148c0.448-0.494,0.799-1.079,1.052-1.755
			c0.254-0.675,0.381-1.417,0.381-2.228v-0.09c0-0.81-0.127-1.545-0.381-2.205c-0.253-0.659-0.604-1.237-1.052-1.732
			c-0.448-0.495-0.97-0.877-1.568-1.147c-0.598-0.27-1.24-0.405-1.926-0.405s-1.329,0.136-1.926,0.405
			c-0.598,0.271-1.12,0.646-1.568,1.125c-0.448,0.48-0.807,1.058-1.075,1.732s-0.403,1.418-0.403,2.228v0.09
			c0,0.811,0.134,1.553,0.403,2.228c0.269,0.676,0.627,1.261,1.075,1.755c0.448,0.495,0.97,0.878,1.568,1.148
			C212.401,102.078,213.043,102.212,213.73,102.212z"/>
		<path fill="#7A003C" d="M244.667,77.328h14.895c2.431,0,4.484,0.3,6.165,0.9c1.68,0.601,3.045,1.44,4.096,2.52
			c1.859,1.8,2.79,4.245,2.79,7.335v0.09c0,2.431-0.585,4.44-1.755,6.03c-1.171,1.591-2.745,2.806-4.726,3.645l7.515,10.98h-10.08
			l-6.345-9.54h-0.09h-3.735v9.54h-8.73V77.328z M259.157,92.448c1.5,0,2.655-0.338,3.466-1.013c0.81-0.675,1.215-1.582,1.215-2.723
			v-0.09c0-1.26-0.421-2.197-1.26-2.813c-0.841-0.614-1.996-0.923-3.466-0.923h-5.715v7.561H259.157z"/>
		<path fill="#7A003C" d="M288.332,109.413c-1.921,0-3.676-0.308-5.266-0.923c-1.59-0.614-2.963-1.469-4.117-2.564
			c-1.155-1.095-2.056-2.423-2.7-3.982c-0.646-1.56-0.968-3.285-0.968-5.175v-0.091c0-1.77,0.3-3.427,0.9-4.972
			c0.6-1.545,1.447-2.896,2.542-4.051c1.095-1.154,2.393-2.062,3.893-2.722s3.15-0.99,4.95-0.99c2.1,0,3.922,0.359,5.468,1.08
			c1.545,0.72,2.819,1.688,3.825,2.902c1.005,1.215,1.755,2.625,2.25,4.229c0.495,1.605,0.742,3.308,0.742,5.107
			c0,0.271,0,0.556,0,0.855s-0.016,0.601-0.045,0.9h-16.29c0.33,1.35,0.952,2.355,1.867,3.015c0.915,0.66,2.048,0.99,3.397,0.99
			c1.02,0,1.958-0.195,2.813-0.585c0.855-0.39,1.718-1.02,2.588-1.891l4.725,3.915c-1.17,1.501-2.617,2.7-4.342,3.601
			C292.838,108.962,290.761,109.413,288.332,109.413z M291.841,94.653c-0.15-1.351-0.601-2.423-1.351-3.218s-1.71-1.192-2.88-1.192
			c-1.141,0-2.069,0.397-2.79,1.192c-0.72,0.795-1.2,1.867-1.439,3.218H291.841z"/>
		<path fill="#7A003C" d="M312.941,109.368c-2.069,0-4.08-0.293-6.029-0.878c-1.951-0.585-3.78-1.491-5.49-2.722l3.194-5.176
			c1.41,0.931,2.843,1.628,4.298,2.093c1.455,0.466,2.813,0.697,4.072,0.697c1.44,0,2.16-0.435,2.16-1.305v-0.09
			c0-0.479-0.33-0.855-0.99-1.125c-0.66-0.271-1.635-0.585-2.925-0.945c-1.2-0.3-2.325-0.652-3.375-1.058
			c-1.05-0.404-1.965-0.899-2.745-1.484s-1.395-1.298-1.845-2.138s-0.675-1.875-0.675-3.105v-0.09c0-1.289,0.247-2.437,0.742-3.442
			c0.495-1.005,1.177-1.845,2.048-2.52c0.869-0.676,1.896-1.193,3.082-1.553c1.186-0.36,2.482-0.54,3.893-0.54
			c1.8,0,3.57,0.247,5.311,0.742c1.739,0.495,3.314,1.192,4.725,2.093l-2.925,5.399c-1.26-0.689-2.535-1.237-3.825-1.642
			c-1.29-0.405-2.415-0.608-3.375-0.608c-0.66,0-1.155,0.113-1.485,0.338s-0.494,0.503-0.494,0.833v0.09
			c0,0.479,0.337,0.862,1.012,1.147c0.676,0.285,1.657,0.623,2.948,1.013c1.199,0.33,2.324,0.697,3.375,1.103
			c1.05,0.404,1.964,0.899,2.744,1.484s1.396,1.298,1.846,2.138s0.675,1.845,0.675,3.015v0.09c0,1.351-0.24,2.528-0.72,3.533
			c-0.48,1.005-1.155,1.853-2.025,2.542c-0.87,0.69-1.92,1.208-3.15,1.553S314.411,109.368,312.941,109.368z"/>
		<path fill="#7A003C" d="M338.101,109.413c-1.921,0-3.676-0.308-5.266-0.923c-1.59-0.614-2.963-1.469-4.117-2.564
			c-1.155-1.095-2.056-2.423-2.7-3.982c-0.646-1.56-0.968-3.285-0.968-5.175v-0.091c0-1.77,0.3-3.427,0.9-4.972
			c0.6-1.545,1.447-2.896,2.542-4.051c1.095-1.154,2.393-2.062,3.893-2.722s3.15-0.99,4.95-0.99c2.1,0,3.922,0.359,5.468,1.08
			c1.545,0.72,2.819,1.688,3.825,2.902c1.005,1.215,1.755,2.625,2.25,4.229c0.495,1.605,0.742,3.308,0.742,5.107
			c0,0.271,0,0.556,0,0.855s-0.016,0.601-0.045,0.9h-16.29c0.33,1.35,0.952,2.355,1.867,3.015c0.915,0.66,2.048,0.99,3.397,0.99
			c1.02,0,1.958-0.195,2.813-0.585c0.855-0.39,1.718-1.02,2.588-1.891l4.725,3.915c-1.17,1.501-2.617,2.7-4.342,3.601
			C342.608,108.962,340.531,109.413,338.101,109.413z M341.611,94.653c-0.15-1.351-0.601-2.423-1.351-3.218s-1.71-1.192-2.88-1.192
			c-1.141,0-2.069,0.397-2.79,1.192c-0.72,0.795-1.2,1.867-1.439,3.218H341.611z"/>
		<path fill="#7A003C" d="M359.817,109.368c-1.17,0-2.25-0.165-3.239-0.495c-0.99-0.33-1.853-0.81-2.588-1.439
			c-0.735-0.631-1.313-1.41-1.732-2.341c-0.421-0.929-0.63-2.009-0.63-3.239v-0.091c0-1.26,0.232-2.369,0.697-3.329
			s1.109-1.756,1.936-2.386c0.824-0.63,1.822-1.109,2.992-1.439s2.475-0.495,3.915-0.495c1.14,0,2.228,0.098,3.263,0.292
			c1.035,0.196,1.896,0.413,2.587,0.653v-0.405c0-1.26-0.397-2.234-1.192-2.925s-2.018-1.035-3.667-1.035
			c-1.291,0-2.461,0.12-3.511,0.359c-1.05,0.241-2.114,0.57-3.194,0.99l-1.755-6.03c1.379-0.569,2.842-1.026,4.387-1.372
			c1.545-0.345,3.367-0.518,5.468-0.518c2.189,0,4.042,0.255,5.558,0.765c1.515,0.511,2.752,1.246,3.713,2.205
			c0.929,0.9,1.597,1.988,2.002,3.263c0.405,1.275,0.607,2.768,0.607,4.478v13.995h-8.46v-2.52c-0.84,0.93-1.838,1.672-2.992,2.227
			C362.825,109.09,361.437,109.368,359.817,109.368z M362.877,104.012c1.26,0,2.279-0.359,3.06-1.079
			c0.78-0.721,1.17-1.695,1.17-2.926v-1.125c-0.42-0.18-0.922-0.329-1.507-0.449s-1.192-0.181-1.822-0.181
			c-1.261,0-2.228,0.278-2.903,0.833c-0.675,0.555-1.012,1.282-1.012,2.183v0.09c0,0.84,0.284,1.492,0.854,1.957
			C361.287,103.781,362.007,104.012,362.877,104.012z"/>
		<path fill="#7A003C" d="M379.991,84.483h8.595v4.904c0.69-1.649,1.635-2.97,2.835-3.96c1.2-0.989,2.82-1.439,4.86-1.35v9h-0.72
			c-2.25,0-3.976,0.66-5.175,1.98c-1.2,1.32-1.801,3.39-1.801,6.21v7.56h-8.595V84.483z"/>
		<path fill="#7A003C" d="M410.734,109.413c-1.83,0-3.525-0.338-5.085-1.013c-1.561-0.675-2.902-1.582-4.027-2.723
			c-1.125-1.14-2.011-2.481-2.655-4.027c-0.646-1.545-0.968-3.172-0.968-4.882v-0.091c0-1.71,0.322-3.337,0.968-4.882
			c0.645-1.545,1.537-2.896,2.678-4.05c1.14-1.155,2.512-2.07,4.117-2.745c1.604-0.676,3.367-1.013,5.288-1.013
			c2.52,0,4.619,0.495,6.3,1.484c1.68,0.99,3.044,2.311,4.095,3.961l-5.805,4.319c-0.601-0.81-1.245-1.439-1.936-1.89
			s-1.56-0.675-2.609-0.675c-0.69,0-1.328,0.143-1.913,0.427c-0.585,0.286-1.088,0.676-1.507,1.17
			c-0.421,0.495-0.751,1.065-0.99,1.711c-0.24,0.645-0.36,1.343-0.36,2.092v0.09c0,0.781,0.12,1.508,0.36,2.183
			c0.239,0.675,0.569,1.261,0.99,1.755c0.419,0.495,0.929,0.886,1.529,1.17c0.6,0.286,1.26,0.428,1.98,0.428
			c1.02,0,1.882-0.225,2.587-0.675s1.402-1.064,2.093-1.845l5.715,4.14c-1.141,1.681-2.564,3.03-4.274,4.05
			S413.404,109.413,410.734,109.413z"/>
		<path fill="#7A003C" d="M424.431,75.978h8.595v11.835c0.771-1.02,1.732-1.92,2.889-2.7s2.593-1.17,4.312-1.17
			c2.624,0,4.668,0.795,6.131,2.385c1.462,1.591,2.194,3.78,2.194,6.57v15.93h-8.595V95.643c0-1.351-0.312-2.37-0.934-3.061
			c-0.622-0.689-1.437-1.035-2.443-1.035c-1.036,0-1.888,0.346-2.555,1.035c-0.666,0.69-0.999,1.71-0.999,3.061v13.185h-8.595
			V75.978z"/>
	</g>
	<g>
		<path fill="#807F83" d="M17.955,71.208c-2.25,0-4.365-0.405-6.345-1.215s-3.698-1.942-5.152-3.397
			c-1.456-1.455-2.61-3.18-3.465-5.175c-0.855-1.995-1.283-4.162-1.283-6.502v-0.09c0-2.279,0.42-4.417,1.26-6.413
			c0.839-1.995,1.995-3.735,3.465-5.22c1.469-1.485,3.217-2.647,5.243-3.488c2.025-0.839,4.237-1.26,6.637-1.26
			c1.62,0,3.089,0.157,4.41,0.472c1.32,0.315,2.527,0.765,3.623,1.35c1.095,0.585,2.084,1.283,2.97,2.093
			c0.885,0.81,1.672,1.695,2.363,2.655l-6.57,5.085c-0.9-1.14-1.89-2.04-2.97-2.7c-1.08-0.66-2.385-0.99-3.915-0.99
			c-1.11,0-2.123,0.218-3.038,0.652c-0.916,0.436-1.703,1.028-2.362,1.778c-0.661,0.75-1.178,1.635-1.553,2.655
			c-0.375,1.021-0.563,2.1-0.563,3.24v0.09c0,1.17,0.187,2.272,0.563,3.308c0.375,1.035,0.892,1.928,1.553,2.677
			c0.659,0.75,1.447,1.343,2.362,1.778c0.915,0.435,1.927,0.652,3.038,0.652c0.81,0,1.552-0.09,2.228-0.27
			c0.675-0.18,1.29-0.442,1.845-0.788c0.555-0.344,1.08-0.75,1.575-1.215c0.495-0.465,0.982-0.982,1.462-1.553l6.57,4.68
			c-0.75,1.02-1.568,1.965-2.452,2.835c-0.885,0.871-1.89,1.62-3.015,2.25s-2.385,1.125-3.78,1.485
			C21.263,71.028,19.694,71.208,17.955,71.208z"/>
		<path fill="#807F83" d="M46.768,71.163c-1.92,0-3.675-0.308-5.265-0.922c-1.59-0.615-2.963-1.47-4.117-2.565
			c-1.155-1.095-2.055-2.422-2.7-3.982c-0.646-1.56-0.967-3.285-0.967-5.175v-0.09c0-1.77,0.299-3.427,0.9-4.973
			c0.6-1.545,1.447-2.895,2.542-4.05c1.095-1.155,2.392-2.063,3.893-2.723c1.5-0.66,3.15-0.99,4.95-0.99
			c2.1,0,3.922,0.36,5.468,1.08c1.544,0.72,2.819,1.688,3.825,2.903c1.005,1.215,1.755,2.625,2.25,4.23
			c0.495,1.605,0.743,3.307,0.743,5.107c0,0.27,0,0.555,0,0.855c0,0.3-0.016,0.601-0.045,0.9h-16.29
			c0.33,1.35,0.952,2.355,1.868,3.015c0.915,0.66,2.047,0.99,3.397,0.99c1.02,0,1.958-0.195,2.813-0.585
			c0.855-0.389,1.717-1.02,2.587-1.89l4.725,3.915c-1.17,1.5-2.618,2.7-4.343,3.6C51.275,70.713,49.198,71.163,46.768,71.163z
			 M50.278,56.403c-0.151-1.35-0.601-2.422-1.35-3.218c-0.75-0.794-1.71-1.192-2.88-1.192c-1.14,0-2.07,0.398-2.79,1.192
			c-0.72,0.795-1.201,1.868-1.44,3.218H50.278z"/>
		<path fill="#807F83" d="M61.901,46.233h8.595v3.42c0.385-0.51,0.815-1.005,1.289-1.485c0.474-0.479,1.007-0.9,1.6-1.26
			s1.245-0.652,1.956-0.877c0.711-0.225,1.497-0.337,2.355-0.337c2.624,0,4.667,0.795,6.131,2.385c1.462,1.59,2.194,3.78,2.194,6.57
			v15.93h-8.595V57.393c0-1.35-0.312-2.37-0.933-3.06c-0.622-0.689-1.436-1.035-2.443-1.035c-1.036,0-1.888,0.345-2.554,1.035
			c-0.667,0.69-0.999,1.71-0.999,3.06v13.185h-8.595V46.233z"/>
		<path fill="#807F83" d="M99.964,71.073c-2.594,0-4.614-0.615-6.062-1.845c-1.448-1.229-2.171-3.3-2.171-6.21v-9.9h-2.88v-6.885
			h2.88v-6.165h8.595v6.165h5.67v6.885h-5.67v8.235c0,0.871,0.195,1.493,0.585,1.868c0.39,0.375,0.975,0.563,1.755,0.563
			c0.57,0,1.125-0.075,1.665-0.225c0.54-0.15,1.064-0.345,1.575-0.585v6.705c-0.781,0.42-1.665,0.758-2.655,1.012
			C102.262,70.945,101.166,71.073,99.964,71.073z"/>
		<path fill="#807F83" d="M110.06,46.233h8.595v4.905c0.689-1.649,1.635-2.97,2.835-3.96c1.199-0.99,2.819-1.44,4.86-1.35v9h-0.72
			c-2.25,0-3.976,0.66-5.175,1.98c-1.2,1.32-1.8,3.391-1.8,6.21v7.56h-8.595V46.233z"/>
		<path fill="#807F83" d="M141.141,71.163c-1.92,0-3.675-0.308-5.265-0.922c-1.59-0.615-2.963-1.47-4.117-2.565
			c-1.155-1.095-2.055-2.422-2.7-3.982c-0.646-1.56-0.967-3.285-0.967-5.175v-0.09c0-1.77,0.299-3.427,0.9-4.973
			c0.6-1.545,1.447-2.895,2.542-4.05c1.095-1.155,2.392-2.063,3.893-2.723c1.5-0.66,3.15-0.99,4.95-0.99
			c2.1,0,3.922,0.36,5.468,1.08c1.544,0.72,2.819,1.688,3.825,2.903c1.005,1.215,1.755,2.625,2.25,4.23
			c0.495,1.605,0.743,3.307,0.743,5.107c0,0.27,0,0.555,0,0.855c0,0.3-0.016,0.601-0.045,0.9h-16.29
			c0.33,1.35,0.952,2.355,1.868,3.015c0.915,0.66,2.047,0.99,3.397,0.99c1.02,0,1.958-0.195,2.813-0.585
			c0.855-0.389,1.717-1.02,2.587-1.89l4.725,3.915c-1.17,1.5-2.618,2.7-4.343,3.6C145.648,70.713,143.571,71.163,141.141,71.163z
			 M144.651,56.403c-0.151-1.35-0.601-2.422-1.35-3.218c-0.75-0.794-1.71-1.192-2.88-1.192c-1.14,0-2.07,0.398-2.79,1.192
			c-0.72,0.795-1.201,1.868-1.44,3.218H144.651z"/>
		<path fill="#807F83" d="M170.301,53.073h-2.835v-6.705h2.835v-0.54c0-2.819,0.689-4.92,2.07-6.3c0.75-0.75,1.635-1.29,2.655-1.62
			c1.02-0.33,2.25-0.495,3.69-0.495c1.319,0,2.407,0.061,3.262,0.18c0.855,0.12,1.627,0.285,2.317,0.495v6.03
			c-0.51-0.15-1.02-0.27-1.53-0.36c-0.511-0.09-1.065-0.135-1.665-0.135c-1.62,0-2.43,0.765-2.43,2.295v0.585h5.58v6.57h-5.445
			v17.505h-8.505V53.073z"/>
		<path fill="#807F83" d="M198.992,71.163c-1.95,0-3.743-0.331-5.377-0.99c-1.635-0.66-3.053-1.567-4.252-2.723
			c-1.2-1.155-2.13-2.498-2.79-4.027c-0.66-1.53-0.99-3.165-0.99-4.905v-0.09c0-1.74,0.337-3.382,1.012-4.928
			c0.675-1.544,1.612-2.895,2.813-4.05c1.2-1.155,2.625-2.07,4.275-2.745c1.65-0.675,3.45-1.012,5.4-1.012
			c1.95,0,3.742,0.337,5.377,1.012c1.635,0.675,3.052,1.583,4.252,2.723c1.2,1.14,2.13,2.475,2.79,4.005
			c0.66,1.53,0.99,3.166,0.99,4.905v0.09c0,1.74-0.337,3.383-1.012,4.927c-0.675,1.545-1.613,2.896-2.813,4.05
			c-1.2,1.155-2.625,2.07-4.275,2.745C202.742,70.826,200.942,71.163,198.992,71.163z M199.083,63.873
			c0.78,0,1.485-0.141,2.115-0.424s1.162-0.669,1.598-1.16c0.435-0.491,0.772-1.064,1.012-1.719c0.24-0.654,0.36-1.338,0.36-2.053
			v-0.089c0-0.744-0.128-1.443-0.383-2.098c-0.255-0.654-0.615-1.228-1.08-1.718c-0.466-0.491-1.013-0.885-1.643-1.183
			c-0.63-0.297-1.321-0.447-2.07-0.447c-0.78,0-1.485,0.142-2.115,0.424s-1.163,0.67-1.598,1.161
			c-0.435,0.491-0.772,1.064-1.012,1.719c-0.241,0.654-0.36,1.338-0.36,2.052v0.089c0,0.744,0.127,1.443,0.383,2.098
			c0.254,0.654,0.614,1.227,1.08,1.718c0.465,0.491,1.013,0.885,1.643,1.183C197.643,63.725,198.332,63.873,199.083,63.873z"/>
		<path fill="#807F83" d="M216.006,46.233h8.595v4.905c0.689-1.649,1.635-2.97,2.835-3.96c1.199-0.99,2.819-1.44,4.86-1.35v9h-0.72
			c-2.25,0-3.976,0.66-5.175,1.98c-1.2,1.32-1.8,3.391-1.8,6.21v7.56h-8.595V46.233z"/>
	</g>
	<g>
		<g>
			<path fill="#999A9E" d="M513.002,63.827c-5.692,4.28-20.672,6.206-27.135,6.591c-3.638,2.911-9.887,7.533-18.875,7.533
				c-1.07,0-2.14-0.085-3.21-0.171c-1.369,1.156-2.996,2.097-4.751,2.739c4.922,6.249,13.012,17.634,17.549,30.131
				c7.062,0.984,10.015-3.895,10.015-3.895l-7.318-16.82c0,0,12.711,1.712,18.318-7.79c6.976-1.07,17.034-4.151,18.019-19.046
				C514.8,63.271,513.945,63.57,513.002,63.827"/>
			<path fill="#999A9E" d="M518.738,46.964c3.082-11.427-0.257-16.82-6.548-20.33c-0.428-5.607-5.179-14.466-14.21-13.611
				c-4.023-9.073-14.766-10.186-21.143-7.832c-4.58-5.436-13.098-6.292-19.731-3.681c-6.292-2.782-14.381-1.669-20.801,2.91
				c-6.077-1.798-16.136,2.696-19.603,7.062c-7.104,1.37-13.781,7.147-15.322,14.424c-7.404,5.264-9.758,17.419-5.949,23.839
				c0.557,14.424,10.571,13.054,16.692,9.972c3.852,3.938,13.91,0.171,13.91,0.171c-0.043,6.591,5.478,11.813,12.797,12.155
				c3.724,4.879,11.299,7.319,17.505,5.649c0.214-0.085,0.514-0.128,0.514-0.128c2.012-0.642,3.895-1.669,5.393-3.253
				c1.498,0.299,2.953,0.428,4.323,0.428c8.56,0.128,14.338-4.537,17.719-7.233c7.576-0.129,22.984-2.397,26.922-5.992
				c1.669-0.385,3.038-0.813,4.194-1.327l0,0C522.89,56.937,521.177,51.244,518.738,46.964"/>
		</g>
		<path fill="#FFFFFF" d="M507.225,50.186v-2.868h-9.459v-22.94h-3.296v25.808H507.225z M486.724,41.155h-8.261l4.023-13.782h0.085
			L486.724,41.155z M472.385,50.186h3.339l1.926-6.163h9.973l1.84,6.163h3.682l-8.39-25.808h-4.193L472.385,50.186z M471.102,50.186
			v-2.868h-10.229v-8.945h9.288v-2.868h-9.288v-8.26h10.016v-2.867h-13.312v25.808H471.102z"/>
		<g>
			<path fill="#8D194A" d="M451.2,26.432c0,1.07,0.855,1.926,1.926,1.926s1.927-0.856,1.927-1.926s-0.856-1.926-1.927-1.926
				S451.2,25.362,451.2,26.432 M454.709,32.638c0-1.027-0.6-1.669-1.584-1.669s-1.583,0.642-1.583,1.669V48.73
				c0,1.027,0.599,1.669,1.583,1.669s1.584-0.642,1.584-1.669V32.638z"/>
			<path fill="#FFFFFF" d="M440.329,38.33c1.112,0,3.638,0.128,3.895,3.295c0.3,3.424,0.086,6.805,0.984,8.603h3.424
				c-0.514-1.626-0.855-5.65-0.898-6.763c-0.171-5.179-1.241-6.206-4.237-6.634v-0.085c3.039-0.557,4.708-2.868,4.708-5.907
				c0-3.21-1.626-6.42-6.206-6.42h-8.816v25.809h3.295V38.33H440.329z M436.476,27.245h4.965c2.525,0,3.467,2.055,3.467,3.938
				c0,2.269-1.155,4.28-3.509,4.28h-4.923V27.245z M425.177,41.155h-8.261l4.023-13.782h0.086L425.177,41.155z M410.839,50.186
				h3.338l1.927-6.163h9.972l1.841,6.163h3.681l-8.389-25.808h-4.194L410.839,50.186z"/>
		</g>
	</g>
</g>
</svg>
